<?xml version="1.0" encoding="UTF-8" standalone="no"?>
<svg
   xmlns:dc="http://purl.org/dc/elements/1.1/"
   xmlns:cc="http://creativecommons.org/ns#"
   xmlns:rdf="http://www.w3.org/1999/02/22-rdf-syntax-ns#"
   xmlns:svg="http://www.w3.org/2000/svg"
   xmlns="http://www.w3.org/2000/svg"
   viewBox="0 0 566.93335 566.93335"
   height="566.93335"
   width="566.93335"
   xml:space="preserve"
   id="svg2"
   version="1.1"><metadata
     id="metadata8"><rdf:RDF><cc:Work
         rdf:about=""><dc:format>image/svg+xml</dc:format><dc:type
           rdf:resource="http://purl.org/dc/dcmitype/StillImage" /></cc:Work></rdf:RDF></metadata><defs
     id="defs6"><clipPath
       id="clipPath20"
       clipPathUnits="userSpaceOnUse"><path
         id="path18"
         d="M 0,4251.97 V 0 h 4251.97 v 4251.97 z" /></clipPath><clipPath
       id="clipPath236"
       clipPathUnits="userSpaceOnUse"><path
         id="path234"
         d="m 3707.43,2063.5 c 0,868.7 -704.22,1572.93 -1572.92,1572.93 -868.71,0 -1572.924,-704.23 -1572.924,-1572.93 0,-868.7 704.214,-1572.922 1572.924,-1572.922 868.7,0 1572.92,704.222 1572.92,1572.922" /></clipPath><clipPath
       id="clipPath306"
       clipPathUnits="userSpaceOnUse"><path
         id="path304"
         d="M 0,4251.97 V 0 h 4251.97 v 4251.97 z" /></clipPath><clipPath
       id="clipPath316"
       clipPathUnits="userSpaceOnUse"><path
         id="path314"
         d="m 2418.52,3215.26 c 0,230.19 186.61,416.8 416.81,416.8 230.18,0 416.79,-186.61 416.79,-416.8 0,-230.2 -186.61,-416.81 -416.79,-416.81 -230.2,0 -416.81,186.61 -416.81,416.81" /></clipPath><clipPath
       id="clipPath350"
       clipPathUnits="userSpaceOnUse"><path
         id="path348"
         d="M 0,4251.97 V 0 h 4251.97 v 4251.97 z" /></clipPath></defs><g
     transform="matrix(1.3333333,0,0,-1.3333333,0,566.93333)"
     id="g10"><g
       transform="scale(0.1)"
       id="g12"><g
         id="g14"><g
           clip-path="url(#clipPath20)"
           id="g16"><path
             id="path24"
             style="fill:#40849c;fill-opacity:1;fill-rule:nonzero;stroke:none"
             d="m 3707.43,2063.5 c 0,868.7 -704.22,1572.93 -1572.92,1572.93 -868.71,0 -1572.924,-704.23 -1572.924,-1572.93 0,-868.7 704.214,-1572.922 1572.924,-1572.922 868.7,0 1572.92,704.222 1572.92,1572.922" /><path
             id="path26"
             style="fill:#f0413e;fill-opacity:1;fill-rule:nonzero;stroke:none"
             d="m 640.977,1949.06 292.039,53.6 -80.938,440.93 -292.039,-53.61 c -15.976,-2.94 -26.559,-18.27 -23.625,-34.25 l 70.313,-383.05 c 2.933,-15.98 18.265,-26.56 34.25,-23.62" /><path
             id="path28"
             style="fill:#c6cac9;fill-opacity:1;fill-rule:nonzero;stroke:none"
             d="m 560.027,2389.98 v 0 l 14.27,2.62 -14.258,-2.62 c -0.004,0 -0.008,0 -0.012,0" /><path
             id="path30"
             style="fill:#c13935;fill-opacity:1;fill-rule:nonzero;stroke:none"
             d="m 630.34,2006.93 -70.313,383.05 c 0.004,0 0.008,0 0.012,0 l 14.258,2.62 70.308,-383.05 -14.253,-2.62 c -0.004,0 -0.008,0 -0.012,0" /><path
             id="path32"
             style="fill:#101325;fill-opacity:1;fill-rule:nonzero;stroke:none"
             d="m 640.977,1949.06 292.039,53.6 -10.625,57.87 -292.039,-53.6 c -15.985,-2.94 -26.559,-18.27 -23.625,-34.25 2.933,-15.98 18.265,-26.56 34.25,-23.62" /><path
             id="path34"
             style="fill:#c6cac9;fill-opacity:1;fill-rule:nonzero;stroke:none"
             d="m 924.359,2049.84 6.688,-36.47 -292.035,-53.62 c -10.059,-1.84 -19.742,4.84 -21.586,14.9 -1.848,10.05 4.832,19.73 14.89,21.58 l 292.043,53.61" /><path
             id="path36"
             style="fill:#29577c;fill-opacity:1;fill-rule:nonzero;stroke:none"
             d="m 714.918,1910.86 -35.184,16.47 -27.039,-27.9 -14.507,79.02 62.222,11.43 14.508,-79.02" /><path
             id="path38"
             style="fill:#f57f3d;fill-opacity:1;fill-rule:nonzero;stroke:none"
             d="m 1244.66,1572.8 345.36,92.54 -144.82,540.48 -345.36,-92.54 c -20.94,-5.61 -33.38,-27.14 -27.76,-48.09 l 124.5,-464.63 c 5.61,-20.94 27.14,-33.37 48.08,-27.76" /><path
             id="path40"
             style="fill:#101325;fill-opacity:1;fill-rule:nonzero;stroke:none"
             d="m 1244.66,1572.8 345.36,92.54 -20.32,75.85 -345.36,-92.54 c -20.94,-5.61 -33.37,-27.14 -27.76,-48.09 5.61,-20.94 27.14,-33.37 48.08,-27.76" /><path
             id="path42"
             style="fill:#c6cac9;fill-opacity:1;fill-rule:nonzero;stroke:none"
             d="m 1573.46,1727.16 12.8,-47.8 -345.35,-92.54 c -13.18,-3.53 -26.78,4.32 -30.31,17.49 -3.53,13.19 4.32,26.78 17.49,30.32 l 345.37,92.53" /><path
             id="path44"
             style="fill:#e7e6ec;fill-opacity:1;fill-rule:nonzero;stroke:none"
             d="m 1417.83,2158.41 -4.78,-1.28 101.82,-380.02 -242.32,-64.93 -100.55,375.24 247.11,66.21 -1.28,4.78 -4.78,-1.28 4.78,1.28 -1.28,4.78 -256.67,-68.78 105.67,-394.35 261.44,70.05 -105.67,394.36 -4.77,-1.28 1.28,-4.78" /><path
             id="path46"
             style="fill:#cdc7ac;fill-opacity:1;fill-rule:nonzero;stroke:none"
             d="m 3444.19,1297.32 h 40.8594 v 145.578 H 3444.19 Z" /><path
             id="path48"
             style="fill:#101325;fill-opacity:1;fill-rule:nonzero;stroke:none"
             d="m 3642.38,1508.79 -337.93,585.32 -17.7,-10.22 337.93,-585.32 17.7,10.22" /><path
             id="path50"
             style="fill:#76cdc9;fill-opacity:1;fill-rule:nonzero;stroke:none"
             d="m 3729.61,1949.24 c -84.49,146.35 -271.64,196.5 -417.99,112 -146.35,-84.49 -196.5,-271.64 -112,-417.99 84.49,-146.36 271.64,-196.5 417.99,-112 146.36,84.49 196.5,271.64 112,417.99" /><path
             id="path52"
             style="fill:#eef9eb;fill-opacity:1;fill-rule:nonzero;stroke:none"
             d="m 3311.62,2061.24 c 29.69,17.14 61.07,28.65 92.91,35.03 2.83,-38.99 -23.73,-75.49 -63.77,-83.37 l -112.37,-22.1 c 22.67,27.53 50.53,51.56 83.23,70.44" /><path
             id="path54"
             style="fill:#52954b;fill-opacity:1;fill-rule:nonzero;stroke:none"
             d="m 3335.37,1659.15 -21.45,-129.19 c -46.03,25.98 -85.96,64.2 -114.3,113.29 -1.07,1.86 -2.03,3.76 -3.06,5.63 l 56.14,32.42 c 28.94,16.71 65.96,6.79 82.67,-22.15" /><path
             id="path56"
             style="fill:#52954b;fill-opacity:1;fill-rule:nonzero;stroke:none"
             d="m 3680.21,2013.4 -29.43,-53.97 c -22.33,-40.95 -75.02,-53.86 -113.75,-27.86 l -112.73,75.67 12.54,93.72 c 89.13,8.07 178.82,-23.4 243.37,-87.56" /><path
             id="path58"
             style="fill:#52954b;fill-opacity:1;fill-rule:nonzero;stroke:none"
             d="m 3638.4,1588.77 -28.48,211.84 -115.19,37.01 -151.36,-87.4 147.51,-80.72 28.15,-48.75 c 24.13,-41.8 77.57,-56.11 119.37,-31.98" /><path
             id="path60"
             style="fill:#366f8a;fill-opacity:1;fill-rule:nonzero;stroke:none"
             d="m 3296.11,1540.75 c -38.09,25.08 -71.13,59.09 -95.68,101.1 0.14,-0.22 0.27,-0.45 0.4,-0.68 24.5,-41.69 57.4,-75.47 95.28,-100.42" /><path
             id="path62"
             style="fill:#6ac2c1;fill-opacity:1;fill-rule:nonzero;stroke:none"
             d="m 3464.87,1490.22 c -59.8,0 -118.64,17.54 -168.76,50.53 -37.88,24.95 -70.78,58.73 -95.28,100.42 28.26,-48.09 67.72,-85.59 113.09,-111.21 l 21.45,129.19 c -11.21,19.41 -31.55,30.26 -52.47,30.26 -10.26,0 -20.67,-2.61 -30.2,-8.11 l -56.14,-32.42 c 1.03,-1.87 1.99,-3.77 3.06,-5.63 v 0 c -65.62,113.66 -49.99,251.9 28.82,347.56 l 74.57,14.67 c 0.4,-1.38 0.97,-2.73 1.72,-4.03 l 0.23,-0.42 c 3.33,-5.75 9.36,-8.96 15.56,-8.96 3.04,0 6.12,0.77 8.95,2.4 2.82,1.63 5.9,2.4 8.94,2.4 6.2,0 12.23,-3.21 15.56,-8.96 l 0.23,-0.42 c 4.95,-8.58 2.01,-19.54 -6.56,-24.5 l -55.07,-31.79 c -8.57,-4.95 -11.51,-15.92 -6.56,-24.5 l 0.24,-0.41 c 3.32,-5.76 9.35,-8.98 15.55,-8.98 3.05,0 6.13,0.77 8.96,2.4 l 55.05,31.8 c 2.83,1.63 5.91,2.41 8.95,2.41 6.2,0 12.23,-3.22 15.56,-8.97 l 0.23,-0.42 c 4.95,-8.58 2.02,-19.54 -6.56,-24.49 l -84.72,-48.92 c -8.57,-4.95 -11.51,-15.92 -6.56,-24.49 l 0.24,-0.42 c 3.32,-5.76 9.35,-8.98 15.54,-8.98 3.05,0 6.13,0.78 8.95,2.42 l 84.72,48.9 c 2.83,1.63 5.91,2.41 8.96,2.41 6.2,0 12.22,-3.22 15.54,-8.97 l 0.25,-0.42 c 4.95,-8.57 2.01,-19.55 -6.57,-24.5 l -97.43,-56.24 c -8.57,-4.95 -11.51,-15.92 -6.56,-24.5 l 0.25,-0.41 c 3.32,-5.76 9.35,-8.98 15.54,-8.98 3.04,0 6.13,0.77 8.95,2.4 l 97.42,56.25 c 1.09,0.63 2.23,1.14 3.38,1.52 l -98.52,-56.89 36.94,-20.21 -21.04,-12.14 c -8.58,-4.95 -11.52,-15.92 -6.57,-24.5 l 0.24,-0.42 c 3.32,-5.75 9.35,-8.97 15.55,-8.97 3.04,0 6.13,0.77 8.95,2.4 l 40.19,23.21 37.32,-20.43 -46.63,-26.92 c -8.57,-4.95 -11.51,-15.91 -6.56,-24.49 l 0.25,-0.42 c 3.32,-5.75 9.34,-8.97 15.53,-8.97 3.05,0 6.13,0.78 8.96,2.41 l 65.06,37.56 18.17,-31.48 -35.41,-20.45 c -8.57,-4.95 -11.51,-15.91 -6.56,-24.49 l 0.24,-0.42 c 3.32,-5.75 9.35,-8.97 15.54,-8.97 3.04,0 6.13,0.77 8.95,2.41 l 36.98,21.34 c 9.29,-10.43 20.76,-18.26 33.3,-23.17 -6.22,-5.54 -7.93,-14.86 -3.6,-22.36 l 0.24,-0.42 c 3.32,-5.75 9.36,-8.97 15.55,-8.97 3.05,0 6.13,0.78 8.95,2.41 2.82,1.63 5.91,2.4 8.95,2.4 6.19,0 12.22,-3.21 15.55,-8.96 l 0.24,-0.43 c 4.33,-7.5 2.62,-16.85 -3.63,-22.38 -44.69,-23.12 -92.72,-34.17 -140.15,-34.17" /><path
             id="path64"
             style="fill:#ebf8e7;fill-opacity:1;fill-rule:nonzero;stroke:none"
             d="m 3228.44,1990.81 c 21.75,26.39 48.29,49.53 79.28,68.04 4.01,-1.33 7.61,-4.03 9.89,-7.98 l 0.25,-0.42 c 4.95,-8.58 2.01,-19.54 -6.57,-24.51 -7.28,-4.2 -10.5,-12.74 -8.28,-20.46 l -74.57,-14.67" /><path
             id="path66"
             style="fill:#457d40;fill-opacity:1;fill-rule:nonzero;stroke:none"
             d="m 3313.92,1529.96 c -45.37,25.62 -84.83,63.12 -113.09,111.21 -0.13,0.23 -0.26,0.46 -0.4,0.68 -0.27,0.47 -0.54,0.93 -0.81,1.4 v 0 c -1.07,1.86 -2.03,3.76 -3.06,5.63 l 56.14,32.42 c 9.53,5.5 19.94,8.11 30.2,8.11 20.92,0 41.26,-10.85 52.47,-30.26 l -21.45,-129.19" /><path
             id="path68"
             style="fill:#457d40;fill-opacity:1;fill-rule:nonzero;stroke:none"
             d="m 3562.77,1583.1 c -12.54,4.91 -24.01,12.74 -33.3,23.17 l 18.09,10.45 c 2.82,1.63 5.91,2.4 8.95,2.4 6.2,0 12.23,-3.22 15.55,-8.97 l 0.24,-0.42 c 4.95,-8.57 2.01,-19.54 -6.56,-24.5 -1.08,-0.62 -2.07,-1.34 -2.97,-2.13 m -53.04,53.75 -18.17,31.48 19.65,11.35 c 2.83,1.63 5.91,2.4 8.95,2.4 6.2,0 12.23,-3.22 15.55,-8.97 l 0.24,-0.42 c 4.95,-8.57 2.01,-19.54 -6.56,-24.49 l -19.66,-11.35 m -54.78,52.31 -37.32,20.43 57.24,33.04 c 2.82,1.63 5.9,2.41 8.94,2.41 6.2,0 12.23,-3.22 15.55,-8.97 l 0.24,-0.42 c 4.95,-8.57 2.01,-19.54 -6.56,-24.5 l -38.09,-21.99 m -74.64,40.85 -36.94,20.21 98.52,56.89 c 1.83,0.6 3.71,0.89 5.57,0.89 6.2,0 12.23,-3.22 15.55,-8.97 l 0.25,-0.42 c 4.95,-8.57 2.01,-19.54 -6.57,-24.5 l -76.38,-44.1" /><path
             id="path70"
             style="fill:#52954b;fill-opacity:1;fill-rule:nonzero;stroke:none"
             d="m 3679.29,1898.64 -26.94,7.22 c -9.74,2.6 -19.75,-3.17 -22.36,-12.9 -2.6,-9.74 3.17,-19.75 12.9,-22.36 l 26.96,-7.21 c 9.73,-2.62 19.73,3.16 22.35,12.9 2.61,9.73 -3.17,19.74 -12.91,22.35" /><path
             id="path72"
             style="fill:#e8e0d8;fill-opacity:1;fill-rule:nonzero;stroke:none"
             d="m 3634.81,1501.46 c -53.64,-30.97 -112.11,-45.66 -169.86,-45.67 -117.68,0.02 -232.06,61.04 -295.12,170.26 -30.96,53.64 -45.66,112.11 -45.66,169.87 0.02,117.67 61.03,232.06 170.25,295.11 l 11.26,6.49 -13,22.52 -11.25,-6.5 c -117.53,-67.85 -183.28,-191.03 -183.26,-317.62 0,-62.16 15.86,-125.21 49.15,-182.87 67.86,-117.52 191.04,-183.27 317.63,-183.25 62.15,-0.01 125.2,15.85 182.86,49.15 l 11.26,6.5 -13,22.51 -11.26,-6.5" /><path
             id="path74"
             style="fill:#e8e0d8;fill-opacity:1;fill-rule:nonzero;stroke:none"
             d="m 3234.21,1227.79 h 460.74 c 0,38.54 -31.25,69.78 -69.78,69.78 H 3304 c -38.55,0 -69.79,-31.24 -69.79,-69.78" /><path
             id="path76"
             style="fill:#f8faeb;fill-opacity:1;fill-rule:nonzero;stroke:none"
             d="m 2083.57,2484.95 c 0,-2.56 -1.64,-4.63 -3.67,-4.58 l -533.55,-0.13 c -2.01,0.04 -3.64,2.07 -3.64,4.62 l -0.01,322.37 c 0,2.56 1.65,4.62 3.68,4.62 l 533.55,0.05 c 2.01,0 3.62,-2.03 3.62,-4.58 l 0.02,-322.37" /><path
             id="path78"
             style="fill:#a3e0d1;fill-opacity:1;fill-rule:nonzero;stroke:none"
             d="m 2049.68,2497.49 c -2.1,0 -4.21,0.62 -6.15,1.78 l -208.33,126.58 c -11.66,7.06 -32.12,7.07 -43.77,-0.03 l -208.34,-126.57 c -6.18,-3.74 -13.98,-1.25 -17.37,5.6 -3.44,6.81 -1.18,15.39 5.02,19.15 l 208.31,126.57 c 19.21,11.66 49.28,11.66 68.51,0.01 l 208.35,-126.53 c 6.17,-3.81 8.42,-12.42 5.01,-19.21 -2.36,-4.68 -6.7,-7.32 -11.24,-7.35" /><path
             id="path80"
             style="fill:#a3e0d1;fill-opacity:1;fill-rule:nonzero;stroke:none"
             d="M 2079.71,2790.88 H 1546.9 c -2.32,0 -4.2,-2.38 -4.23,-5.29 v -0.25 c 5.81,-20.5 20.26,-43.42 34.23,-53.31 l 208.33,-146.98 c 15.43,-10.86 40.71,-10.85 56.14,0.01 l 208.31,146.99 c 13.99,9.85 28.48,32.78 34.23,53.26 v 0.25 c 0,2.94 -1.93,5.32 -4.2,5.32" /><path
             id="path82"
             style="fill:#f8faeb;fill-opacity:1;fill-rule:nonzero;stroke:none"
             d="m 2079.72,2811.86 -532.81,-0.01 c -2.33,0 -4.21,-2.06 -4.21,-4.62 v -0.17 c 5.78,-17.68 20.24,-37.42 34.2,-45.92 l 208.34,-126.56 c 15.43,-9.37 40.71,-9.38 56.12,0.02 l 208.33,126.55 c 13.98,8.52 28.48,28.23 34.22,45.92 v 0.19 c 0,2.56 -1.89,4.6 -4.19,4.6" /><path
             id="path84"
             style="fill:#478ea0;fill-opacity:1;fill-rule:nonzero;stroke:none"
             d="M 3053.66,1227.79 H 819.906 l 112.141,774.7 0.969,0.17 -0.528,2.88 51.625,356.64 402.657,161.46 146.28,-113.72 h -67.66 c -23.62,0 -42.82,-19.29 -42.82,-42.97 v -167.19 l -322.73,-86.48 c -20.94,-5.61 -33.38,-27.14 -27.76,-48.09 l 124.5,-464.63 v 0 c 4.69,-17.54 20.56,-29.11 37.89,-29.11 3.37,0 6.79,0.44 10.19,1.35 l 177.91,47.67 v -54.41 h 1195.96 l 435.13,-338.27" /><path
             id="path86"
             style="fill:#e04f4c;fill-opacity:1;fill-rule:nonzero;stroke:none"
             d="m 933.016,2002.66 -0.528,2.88 v 0 l 0.528,-2.88" /><path
             id="path88"
             style="fill:#1a273f;fill-opacity:1;fill-rule:nonzero;stroke:none"
             d="m 932.047,2002.49 0.441,3.05 0.528,-2.88 -0.969,-0.17" /><path
             id="path90"
             style="fill:#ed8a47;fill-opacity:1;fill-rule:nonzero;stroke:none"
             d="m 1196.58,1600.56 -124.5,464.63 c -5.62,20.95 6.82,42.48 27.76,48.09 l 322.73,86.48 v -39.93 l -1.25,4.64 -4.77,-1.28 -256.67,-68.78 105.67,-394.35 157.02,42.07 v -40.37 l -179.55,-48.1 -124.5,464.63 -18.69,-5.01 124.5,-464.63 c -20.94,-5.62 -33.36,-27.14 -27.75,-48.09 m 75.97,111.62 -100.55,375.24 242.33,64.93 8.24,-30.75 v -369.22 l -150.02,-40.2" /><path
             id="path92"
             style="fill:#bb7542;fill-opacity:1;fill-rule:nonzero;stroke:none"
             d="m 1224.33,1648.65 -124.5,464.63 18.69,5.01 124.5,-464.63 -18.68,-5.01 h -0.01" /><path
             id="path94"
             style="fill:#1a273f;fill-opacity:1;fill-rule:nonzero;stroke:none"
             d="m 1234.47,1571.45 c -17.33,0 -33.2,11.57 -37.89,29.11 v 0 c -5.61,20.95 6.81,42.47 27.75,48.09 h 0.01 l 18.68,5.01 179.55,48.1 v -15.03 l -194.48,-52.1 c -13.17,-3.54 -21.02,-17.13 -17.49,-30.32 2.96,-11.03 12.98,-18.33 23.9,-18.33 2.12,0 4.27,0.27 6.41,0.84 l 181.66,48.68 v -15.03 l -177.91,-47.67 c -3.4,-0.91 -6.82,-1.35 -10.19,-1.35" /><path
             id="path96"
             style="fill:#b8cbc6;fill-opacity:1;fill-rule:nonzero;stroke:none"
             d="m 1234.5,1585.98 c -10.92,0 -20.94,7.3 -23.9,18.33 -3.53,13.19 4.32,26.78 17.49,30.32 l 194.48,52.1 v -51.23 l -181.66,-48.68 c -2.14,-0.57 -4.29,-0.84 -6.41,-0.84" /><path
             id="path98"
             style="fill:#d3e2e2;fill-opacity:1;fill-rule:nonzero;stroke:none"
             d="m 1265.55,1700.06 -105.67,394.35 256.67,68.78 4.77,1.28 1.25,-4.64 v -38.23 l -8.24,30.75 -242.33,-64.93 100.55,-375.24 150.02,40.2 v -10.25 l -157.02,-42.07" /><path
             id="path100"
             style="fill:#101325;fill-opacity:1;fill-rule:nonzero;stroke:none"
             d="m 706.785,1275.63 h 44.8672 v 109.191 H 706.785 Z" /><path
             id="path102"
             style="fill:#78c246;fill-opacity:1;fill-rule:nonzero;stroke:none"
             d="M 1060.33,1227.79 H 510.371 l 32.524,58.52 h 484.935 l 32.5,-58.52" /><path
             id="path104"
             style="fill:#101325;fill-opacity:1;fill-rule:nonzero;stroke:none"
             d="m 1093.62,2480.55 -167.733,-69.69 -13.164,31.77 167.727,69.7 13.17,-31.78" /><path
             id="path106"
             style="fill:#78c246;fill-opacity:1;fill-rule:nonzero;stroke:none"
             d="m 715.758,1375.33 9.406,7.28 -455.906,589.49 50.797,39.39 429.621,-555.52 c 6.312,-8.19 8.996,-17.05 9.019,-25.87 0.016,-10.98 -4.39,-21.86 -11.918,-29.81 -7.566,-7.94 -17.898,-13.03 -30.73,-13.07 h -0.289 v -11.89 l 9.406,7.28 -9.406,-7.28 v -11.89 h 0.289 c 19.449,-0.04 36.391,8.14 48.023,20.52 11.672,12.38 18.395,28.89 18.414,46.14 0.024,13.8 -4.437,28.11 -13.988,40.42 l -444.195,574.36 -88.395,-68.53 474.012,-612.91 h 5.84 v 11.89" /><path
             id="path108"
             style="fill:#78c246;fill-opacity:1;fill-rule:nonzero;stroke:none"
             d="m 914.551,2378.29 -7.309,9.38 -598.664,-466.41 -39.344,50.87 594.801,463.4 44.649,-5.24 -5.942,-50.61 11.809,-1.39 -7.309,9.38 7.309,-9.38 11.808,-1.38 8.715,74.22 -77.957,9.16 -621.187,-483.97 68.437,-88.48 621.41,484.13 0.582,4.94 -11.808,1.38" /><path
             id="path110"
             style="fill:#101325;fill-opacity:1;fill-rule:nonzero;stroke:none"
             d="m 793.152,1399.53 22.61,39.2 -22.61,39.2 h -45.148 l -22.59,-39.2 22.59,-39.2 h 45.148" /><path
             id="path112"
             style="fill:#78c246;fill-opacity:1;fill-rule:nonzero;stroke:none"
             d="m 984.113,2362.18 42.327,270.91 0.03,0.01 -29.361,105.75 121.121,48.05 51.2,-97.33 217.34,-165.93 -402.657,-161.46" /><path
             id="path114"
             style="fill:#3e2114;fill-opacity:1;fill-rule:nonzero;stroke:none"
             d="m 3190.49,1023.61 c 58.04,0 105.09,47.11 105.09,105.23 v 28.08 h -394.24 v -28.08 c 0,-58.12 47.05,-105.23 105.09,-105.23 l -86.48,-323.149 c 35.7,20.609 70.46,42.629 104.31,65.898 l 68.84,257.251 h 10.72 l 43.69,-163.301 c 23.93,20.16 47.28,40.961 69.94,62.492 l -26.97,100.809 h 0.01" /><path
             id="path116"
             style="fill:#3e2114;fill-opacity:1;fill-rule:nonzero;stroke:none"
             d="m 953.582,1128.84 c 0,-58.12 47.048,-105.23 105.098,-105.23 l -22.89,-85.52 c 22.54,-22.02 45.67,-43.43 69.51,-64.078 l 40.03,149.598 h 10.73 l 64.28,-240.192 c 34.05,-24.359 69.12,-47.367 105.12,-69.008 l -82.75,309.2 c 58.05,0 105.1,47.11 105.1,105.23 v 45.01 H 953.582 v -45.01" /><path
             id="path118"
             style="fill:#61351f;fill-opacity:1;fill-rule:nonzero;stroke:none"
             d="m 473.973,1111.94 h 3301.22 v 117.18 H 473.973 Z" /><path
             id="path120"
             style="fill:#101325;fill-opacity:1;fill-rule:nonzero;stroke:none"
             d="m 1422.57,2366.95 v -800.89 h 1404.06 v 800.89 c 0,23.68 -19.23,42.97 -42.86,42.97 H 1465.39 c -23.62,0 -42.82,-19.29 -42.82,-42.97" /><path
             id="path122"
             style="fill:#e8f0ea;fill-opacity:1;fill-rule:nonzero;stroke:none"
             d="m 2433.05,1284.28 v -55.16 h -616.93 v 55.16 h 616.93" /><path
             id="path124"
             style="fill:#d6d4d0;fill-opacity:1;fill-rule:nonzero;stroke:none"
             d="m 1972.44,1444.4 h 304.33 l 14.12,-115.9 c 2.18,-17.9 12.66,-34.06 27.05,-44.23 h -386.69 c 14.39,10.17 24.88,26.33 27.05,44.23 l 14.14,115.9" /><path
             id="path126"
             style="fill:#9baeb1;fill-opacity:1;fill-rule:nonzero;stroke:none"
             d="m 2276.77,1444.4 6.1,-50.23 h -316.55 l 6.13,50.23 h 304.32" /><path
             id="path128"
             style="fill:#e8f0ea;fill-opacity:1;fill-rule:nonzero;stroke:none"
             d="M 2826.62,1566.06 H 1422.57 v -90.96 c 0,-23.69 19.2,-42.96 42.82,-42.96 h 1318.38 c 23.63,0 42.85,19.27 42.85,42.96 v 90.96" /><path
             id="path130"
             style="fill:#3a8f99;fill-opacity:1;fill-rule:nonzero;stroke:none"
             d="m 2124.57,1464.56 c -19,0 -34.44,15.5 -34.44,34.55 0,19.05 15.44,34.55 34.44,34.55 19.02,0 34.48,-15.5 34.48,-34.55 0,-19.05 -15.46,-34.55 -34.48,-34.55" /><path
             id="path132"
             style="fill:#3ea1a5;fill-opacity:1;fill-rule:nonzero;stroke:none"
             d="m 1495.66,1658.14 h 1257.87 v 661.949 H 1495.66 Z" /><path
             id="path134"
             style="fill:#101325;fill-opacity:1;fill-rule:nonzero;stroke:none"
             d="m 2573.25,2218.91 h -897.48 v -491.49 h 384.85 c 2.14,-16.16 17.21,-28.73 35.68,-28.73 h 56.41 c 18.49,0 33.54,12.57 35.68,28.73 h 384.86 v 491.49" /><path
             id="path136"
             style="fill:#fbbe22;fill-opacity:1;fill-rule:nonzero;stroke:none"
             d="m 1675.77,1747 h 897.48 v 491.488 h -897.48 z" /><path
             id="path138"
             style="fill:#e7e6ec;fill-opacity:1;fill-rule:nonzero;stroke:none"
             d="m 2124.51,1771.58 h -423.04 v 514.47 h 356.04 c 37,0 67,-29.99 67,-66.99 v -447.48" /><path
             id="path140"
             style="fill:#c6cac9;fill-opacity:1;fill-rule:nonzero;stroke:none"
             d="m 2124.51,1771.58 h -423.04 v 63.64 H 2054 c 38.94,0 70.51,-28.49 70.51,-63.64" /><path
             id="path142"
             style="fill:#e7e6ec;fill-opacity:1;fill-rule:nonzero;stroke:none"
             d="m 2124.51,1771.58 h 423.03 v 514.47 h -356.05 c -36.99,0 -66.98,-29.99 -66.98,-66.99 v -447.48" /><path
             id="path144"
             style="fill:#c6cac9;fill-opacity:1;fill-rule:nonzero;stroke:none"
             d="m 2124.51,1771.58 h 423.03 v 63.64 H 2195 c -38.93,0 -70.49,-28.49 -70.49,-63.64" /><path
             id="path146"
             style="fill:#c6cac9;fill-opacity:1;fill-rule:nonzero;stroke:none"
             d="m 2107.61,1771.58 h 16.9 v 450.82 c 0,15.66 -6.51,29.81 -16.9,40.89 v -491.71" /><path
             id="path148"
             style="fill:#c6cac9;fill-opacity:1;fill-rule:nonzero;stroke:none"
             d="m 1701.47,1771.58 h 17.6328 v 514.473 H 1701.47 Z" /><path
             id="path150"
             style="fill:#c6cac9;fill-opacity:1;fill-rule:nonzero;stroke:none"
             d="m 1796.21,2215.28 h 233.551 v 10.8477 H 1796.21 Z" /><path
             id="path152"
             style="fill:#c6cac9;fill-opacity:1;fill-rule:nonzero;stroke:none"
             d="m 1796.21,2173.41 h 233.551 v 10.8594 H 1796.21 Z" /><path
             id="path154"
             style="fill:#c6cac9;fill-opacity:1;fill-rule:nonzero;stroke:none"
             d="m 1796.21,2131.55 h 233.551 v 10.8477 H 1796.21 Z" /><path
             id="path156"
             style="fill:#c6cac9;fill-opacity:1;fill-rule:nonzero;stroke:none"
             d="m 1796.21,2089.69 h 233.551 v 10.8477 H 1796.21 Z" /><path
             id="path158"
             style="fill:#c6cac9;fill-opacity:1;fill-rule:nonzero;stroke:none"
             d="m 1796.21,2047.82 h 233.551 v 10.8477 H 1796.21 Z" /><path
             id="path160"
             style="fill:#c6cac9;fill-opacity:1;fill-rule:nonzero;stroke:none"
             d="m 1796.21,2005.96 h 233.551 v 10.8477 H 1796.21 Z" /><path
             id="path162"
             style="fill:#c6cac9;fill-opacity:1;fill-rule:nonzero;stroke:none"
             d="m 1796.21,1964.09 h 233.551 v 10.8516 H 1796.21 Z" /><path
             id="path164"
             style="fill:#c6cac9;fill-opacity:1;fill-rule:nonzero;stroke:none"
             d="m 1796.21,1922.23 h 233.551 v 10.8477 H 1796.21 Z" /><path
             id="path166"
             style="fill:#c6cac9;fill-opacity:1;fill-rule:nonzero;stroke:none"
             d="m 1796.21,1880.36 h 233.551 v 10.8516 H 1796.21 Z" /><path
             id="path168"
             style="fill:#c6cac9;fill-opacity:1;fill-rule:nonzero;stroke:none"
             d="m 2219.24,2215.28 h 233.563 v 10.8477 H 2219.24 Z" /><path
             id="path170"
             style="fill:#c6cac9;fill-opacity:1;fill-rule:nonzero;stroke:none"
             d="m 2219.24,2173.41 h 233.563 v 10.8594 H 2219.24 Z" /><path
             id="path172"
             style="fill:#c6cac9;fill-opacity:1;fill-rule:nonzero;stroke:none"
             d="m 2219.24,2131.55 h 233.563 v 10.8477 H 2219.24 Z" /><path
             id="path174"
             style="fill:#c6cac9;fill-opacity:1;fill-rule:nonzero;stroke:none"
             d="m 2219.24,2089.69 h 233.563 v 10.8477 H 2219.24 Z" /><path
             id="path176"
             style="fill:#c6cac9;fill-opacity:1;fill-rule:nonzero;stroke:none"
             d="m 2219.24,2047.82 h 233.563 v 10.8477 H 2219.24 Z" /><path
             id="path178"
             style="fill:#c6cac9;fill-opacity:1;fill-rule:nonzero;stroke:none"
             d="m 2219.24,2005.96 h 233.563 v 10.8477 H 2219.24 Z" /><path
             id="path180"
             style="fill:#c6cac9;fill-opacity:1;fill-rule:nonzero;stroke:none"
             d="m 2219.24,1964.09 h 233.563 v 10.8516 H 2219.24 Z" /><path
             id="path182"
             style="fill:#c6cac9;fill-opacity:1;fill-rule:nonzero;stroke:none"
             d="m 2219.24,1922.23 h 233.563 v 10.8477 H 2219.24 Z" /><path
             id="path184"
             style="fill:#c6cac9;fill-opacity:1;fill-rule:nonzero;stroke:none"
             d="m 2219.24,1880.36 h 233.563 v 10.8516 H 2219.24 Z" /><path
             id="path186"
             style="fill:#101325;fill-opacity:1;fill-rule:nonzero;stroke:none"
             d="m 2124.51,1791.35 v 0 c -16.5,0 -29.87,-12.07 -29.87,-26.96 v -31.26 h 59.73 v 31.26 c 0,14.89 -13.37,26.96 -29.86,26.96" /><path
             id="path188"
             style="fill:#e8f0ea;fill-opacity:1;fill-rule:nonzero;stroke:none"
             d="m 1597.81,1277.22 c 0,21.43 17.37,38.8 38.8,38.8 h 975.95 c 21.43,0 38.8,-17.37 38.8,-38.8 H 1597.81" /><path
             id="path190"
             style="fill:#d6d4d0;fill-opacity:1;fill-rule:nonzero;stroke:none"
             d="m 1597.81,1229.12 h 1053.55 v 48.0977 H 1597.81 Z" /><path
             id="path192"
             style="fill:#f68522;fill-opacity:1;fill-rule:nonzero;stroke:none"
             d="m 711.727,2604.6 103.214,71.83 -119.343,171.48 -103.215,-71.84 c -11.934,-8.3 -14.879,-24.72 -6.574,-36.65 l 89.257,-128.25 c 8.309,-11.94 24.723,-14.88 36.661,-6.57" /><path
             id="path194"
             style="fill:#101325;fill-opacity:1;fill-rule:nonzero;stroke:none"
             d="m 710.574,2603.8 104.367,72.63 -28.488,40.93 -104.363,-72.63 c -11.305,-7.87 -14.09,-23.41 -6.223,-34.71 7.867,-11.3 23.403,-14.09 34.707,-6.22" /><path
             id="path196"
             style="fill:#c6cac9;fill-opacity:1;fill-rule:nonzero;stroke:none"
             d="m 592.656,2776.26 v 0 l 9.574,6.67 -9.574,-6.67" /><path
             id="path198"
             style="fill:#c36d1e;fill-opacity:1;fill-rule:nonzero;stroke:none"
             d="m 683.516,2645.72 -90.86,130.54 9.574,6.67 90.856,-130.55 -9.574,-6.66" /><path
             id="path200"
             style="fill:#0c101d;fill-opacity:1;fill-rule:nonzero;stroke:none"
             d="m 683.516,2645.72 v 0 l 9.57,6.66 v 0 l -9.57,-6.66" /><path
             id="path202"
             style="fill:#c6cac9;fill-opacity:1;fill-rule:nonzero;stroke:none"
             d="m 791.844,2709.62 17.758,-25.52 -104.676,-72.85 c -7.035,-4.9 -16.742,-3.16 -21.641,3.88 -4.894,7.03 -3.152,16.74 3.883,21.63 l 104.676,72.86" /><path
             id="path204"
             style="fill:#f4fae7;fill-opacity:1;fill-rule:nonzero;stroke:none"
             d="m 3462.64,2464.97 23.23,-40.24 c 1.96,-3.39 6.29,-4.55 9.68,-2.59 3.39,1.95 4.55,6.29 2.59,9.68 l -23.23,40.24 c -1.96,3.39 -6.29,4.55 -9.68,2.59 -3.39,-1.96 -4.55,-6.29 -2.59,-9.68" /><path
             id="path206"
             style="fill:#f4fae7;fill-opacity:1;fill-rule:nonzero;stroke:none"
             d="m 3517.59,2369.78 23.23,-40.24 c 1.96,-3.38 6.29,-4.55 9.68,-2.59 3.39,1.96 4.55,6.29 2.59,9.68 l -23.23,40.24 c -1.96,3.39 -6.29,4.55 -9.68,2.59 -3.39,-1.95 -4.55,-6.29 -2.59,-9.68" /><path
             id="path208"
             style="fill:#f4fae7;fill-opacity:1;fill-rule:nonzero;stroke:none"
             d="m 3429.68,2393.71 h 46.47 c 3.91,0 7.08,3.17 7.08,7.09 0,3.91 -3.17,7.08 -7.08,7.08 h -46.47 c -3.91,0 -7.09,-3.17 -7.09,-7.08 0,-3.92 3.18,-7.09 7.09,-7.09" /><path
             id="path210"
             style="fill:#f4fae7;fill-opacity:1;fill-rule:nonzero;stroke:none"
             d="m 3539.59,2393.71 h 46.46 c 3.91,0 7.09,3.17 7.09,7.09 0,3.91 -3.18,7.08 -7.09,7.08 h -46.46 c -3.91,0 -7.08,-3.17 -7.08,-7.08 0,-3.92 3.17,-7.09 7.08,-7.09" /><path
             id="path212"
             style="fill:#f4fae7;fill-opacity:1;fill-rule:nonzero;stroke:none"
             d="m 3474.91,2329.54 23.23,40.24 c 1.96,3.39 0.8,7.73 -2.59,9.68 -3.39,1.96 -7.72,0.8 -9.68,-2.59 l -23.23,-40.24 c -1.96,-3.39 -0.8,-7.72 2.59,-9.68 3.39,-1.96 7.72,-0.79 9.68,2.59" /><path
             id="path214"
             style="fill:#f4fae7;fill-opacity:1;fill-rule:nonzero;stroke:none"
             d="m 3529.86,2424.73 23.23,40.24 c 1.96,3.39 0.8,7.72 -2.59,9.68 -3.39,1.96 -7.72,0.8 -9.68,-2.59 l -23.23,-40.24 c -1.96,-3.39 -0.8,-7.73 2.59,-9.68 3.39,-1.96 7.72,-0.8 9.68,2.59" /><path
             id="path216"
             style="fill:#316186;fill-opacity:1;fill-rule:nonzero;stroke:none"
             d="m 3291.03,2841.03 185.1,-141.15 213.11,279.46 -185.1,141.16 c -10.12,7.72 -24.6,5.77 -32.32,-4.36 l -185.15,-242.78 c -7.72,-10.13 -5.77,-24.6 4.36,-32.33" /><path
             id="path218"
             style="fill:#264f6d;fill-opacity:1;fill-rule:nonzero;stroke:none"
             d="m 3325.45,2867.43 -9.04,6.9 187.72,246.17 9.05,-6.9 -187.73,-246.17" /><path
             id="path220"
             style="fill:#101325;fill-opacity:1;fill-rule:nonzero;stroke:none"
             d="m 3291.03,2841.03 185.1,-141.15 27.97,36.68 -185.1,141.15 c -10.13,7.73 -24.6,5.78 -32.33,-4.35 -7.72,-10.13 -5.77,-24.6 4.36,-32.33" /><path
             id="path222"
             style="fill:#c6cac9;fill-opacity:1;fill-rule:nonzero;stroke:none"
             d="m 3498.93,2729.78 -17.64,-23.12 -185.09,141.15 c -6.37,4.87 -7.6,14 -2.74,20.38 4.85,6.37 13.99,7.6 20.37,2.74 l 185.1,-141.15" /><path
             id="path224"
             style="fill:#e7e6ec;fill-opacity:1;fill-rule:nonzero;stroke:none"
             d="m 3586.96,2901.47 -121.81,92.9 -9.4,-12.33 121.81,-92.89" /><path
             id="path226"
             style="fill:#e7e6ec;fill-opacity:1;fill-rule:nonzero;stroke:none"
             d="m 3560.2,2866.38 -121.81,92.89 -9.41,-12.33 121.82,-92.89" /><path
             id="path228"
             style="fill:#e7e6ec;fill-opacity:1;fill-rule:nonzero;stroke:none"
             d="m 3509.92,2996.82 67.56,-51.53 4.7,6.17 -67.56,51.52" /></g></g><g
         id="g230"><g
           clip-path="url(#clipPath236)"
           id="g232"><path
             id="path238"
             style="fill:#e8f0ea;fill-opacity:1;fill-rule:nonzero;stroke:none"
             d="m 3038.19,1258.28 c -17.35,43.54 -47.28,76.33 -138.17,76.33 -90.88,0 -120.8,-32.79 -138.14,-76.33 l 0.15,-1.29 v -0.01 c 0.24,-5.64 2.09,-10.82 5.19,-15.14 v -0.02 c 1.02,-1.36 2.13,-2.72 3.38,-3.9 l 0.52,-0.44 c 1.13,-1.03 2.28,-2 3.55,-2.85 l 1.42,-0.75 c 1.06,-0.61 2.12,-1.28 3.25,-1.72 0.86,-0.39 1.8,-0.56 2.71,-0.87 l 2.49,-0.76 c 1.8,-0.36 3.67,-0.54 5.59,-0.54 h 219.8 c 1.93,0 3.81,0.18 5.59,0.54 l 2.34,0.72 c 0.95,0.29 1.94,0.5 2.87,0.91 1.1,0.44 2.11,1.05 3.12,1.67 l 1.53,0.8 c 1.3,0.85 2.47,1.85 3.6,2.88 l 0.49,0.41 c 5.35,5.12 8.72,12.35 8.72,20.36" /><path
             id="path240"
             style="fill:#d3927a;fill-opacity:1;fill-rule:nonzero;stroke:none"
             d="m 1887.17,2259.53 c -36.76,0 -66.57,-29.79 -66.57,-66.49 0,-36.76 29.81,-66.49 66.57,-66.49 h 66.36 v 132.98 h -66.36" /><path
             id="path242"
             style="fill:#d3927a;fill-opacity:1;fill-rule:nonzero;stroke:none"
             d="m 2358.51,2259.53 c 36.76,0 66.56,-29.79 66.56,-66.49 0,-36.76 -29.8,-66.49 -66.56,-66.49 h -66.36 v 132.98 h 66.36" /><path
             id="path244"
             style="fill:#d3927a;fill-opacity:1;fill-rule:nonzero;stroke:none"
             d="m 2151.28,2563.56 h -56.88 c -126.21,0 -226.21,-106.54 -218.22,-232.49 l 12.02,-189.78 c 3.44,-54.27 31.33,-104.06 75.82,-135.33 l 55.73,-39.17 c 61.86,-43.47 144.33,-43.47 206.17,0 l 55.73,39.17 c 44.5,31.27 72.39,81.06 75.83,135.33 l 12.03,189.78 c 7.97,125.95 -92.03,232.49 -218.23,232.49" /><path
             id="path246"
             style="fill:#d3927a;fill-opacity:1;fill-rule:nonzero;stroke:none"
             d="m 2048.38,1719.26 h 148.92 v 243.5 c 0,41.11 -33.34,74.45 -74.46,74.45 -41.12,0 -74.46,-33.34 -74.46,-74.45 v -243.5" /><path
             id="path248"
             style="fill:#d3927a;fill-opacity:1;fill-rule:nonzero;stroke:none"
             d="m 2700.22,1229.3 c -11.5,0 -23.06,1.21 -34.54,3.66 -48.26,10.28 -89,41.29 -111.78,85.05 l -106.62,204.9 c -15.35,29.49 -3.89,65.85 25.61,81.19 29.51,15.35 65.86,3.89 81.2,-25.62 l 106.62,-204.89 c 8.39,-16.11 22.44,-21.24 30.07,-22.88 7.65,-1.62 22.58,-2.67 36.8,8.64 l 37.78,29.99 c 26.03,20.66 63.91,16.31 84.59,-9.73 20.68,-26.05 16.31,-63.91 -9.73,-84.58 l -37.78,-29.99 c -29.47,-23.38 -65.41,-35.74 -102.22,-35.74" /><path
             id="path250"
             style="fill:#e02c39;fill-opacity:1;fill-rule:nonzero;stroke:none"
             d="m 2437.15,1517.16 -47.7,90.37 127.05,67.08 47.71,-90.37 -127.06,-67.08" /><path
             id="path252"
             style="fill:#e02c39;fill-opacity:1;fill-rule:nonzero;stroke:none"
             d="m 2453.04,1569.22 c -25.79,0 -50.72,13.91 -63.59,38.29 l -84.04,159.11 c -18.51,35.08 -5.09,78.55 29.97,97.08 35.1,18.51 78.54,5.1 97.08,-29.97 l 84.04,-159.11 c 18.51,-35.08 5.1,-78.56 -29.97,-97.08 -10.72,-5.65 -22.18,-8.32 -33.49,-8.32" /><path
             id="path254"
             style="fill:#d3927a;fill-opacity:1;fill-rule:nonzero;stroke:none"
             d="m 2821.45,1411.78 -25.46,-6.27 c -36.39,-9.5 -58.19,-46.7 -48.69,-83.1 9.5,-36.4 46.71,-58.2 83.1,-48.7 l 157.26,40.68 c -19,72.79 -93.42,116.4 -166.21,97.39" /><path
             id="path256"
             style="fill:#d3927a;fill-opacity:1;fill-rule:nonzero;stroke:none"
             d="m 1723.88,1227.75 h -134.39 c -83.75,0 -155.01,51.35 -181.53,130.8 -26.53,79.45 -0.4,163.29 66.56,213.62 l 144.2,108.34 c 26.58,19.98 64.33,14.61 84.3,-11.98 19.97,-26.57 14.61,-64.31 -11.98,-84.29 L 1546.85,1475.9 c -37.93,-28.5 -28.48,-67.85 -24.68,-79.22 3.8,-11.38 19.88,-48.51 67.32,-48.51 h 134.39 c 33.25,0 60.2,-26.95 60.2,-60.2 0,-33.26 -26.95,-60.22 -60.2,-60.22" /><path
             id="path258"
             style="fill:#e02c39;fill-opacity:1;fill-rule:nonzero;stroke:none"
             d="m 1698.04,1574.94 -86.31,114.86 81.69,61.4 86.31,-114.86 -81.69,-61.4" /><path
             id="path260"
             style="fill:#e02c39;fill-opacity:1;fill-rule:nonzero;stroke:none"
             d="m 1736.63,1621.93 c -21.82,0 -43.37,9.9 -57.49,28.68 -23.83,31.72 -17.44,76.75 14.28,100.59 l 143.85,108.08 c 31.7,23.85 76.75,17.45 100.59,-14.26 23.83,-31.73 17.44,-76.76 -14.28,-100.59 l -143.85,-108.09 c -12.93,-9.72 -28.08,-14.41 -43.1,-14.41" /><path
             id="path262"
             style="fill:#d3927a;fill-opacity:1;fill-rule:nonzero;stroke:none"
             d="m 1786.98,1364.64 h -58.38 c -37.61,0 -68.11,-30.49 -68.11,-68.11 0,-37.62 30.5,-68.11 68.11,-68.11 h 194.6 c 0,75.23 -60.98,136.22 -136.22,136.22" /><path
             id="path264"
             style="fill:#1c374d;fill-opacity:1;fill-rule:nonzero;stroke:none"
             d="m 2364.68,249.23 c -13.64,0 -27.44,3.86 -39.69,11.918 -33.37,21.954 -42.61,66.813 -20.66,100.18 l 167.3,254.262 c 20.49,31.148 26.23,69.531 15.75,105.32 -10.48,35.781 -36.04,65 -70.1,80.149 l -248.34,110.519 c -36.49,16.242 -52.91,58.992 -36.68,95.492 16.24,36.5 59,52.91 95.5,36.68 L 2476.1,933.23 c 72.94,-32.468 127.64,-95.031 150.1,-171.64 22.45,-76.621 10.15,-158.809 -33.74,-225.512 L 2425.17,281.809 c -13.9,-21.118 -36.96,-32.579 -60.49,-32.579" /><path
             id="path266"
             style="fill:#e02c39;fill-opacity:1;fill-rule:nonzero;stroke:none"
             d="m 1887.07,1881.72 34.8,9.07 c 131.78,34.35 270.16,34.35 401.94,0 l 34.8,-9.07 c 59.31,-15.47 99.2,-70.99 94.91,-132.13 l -57.85,-825.422 h -545.65 l -57.86,825.422 c -4.28,61.14 35.6,116.66 94.91,132.13" /><path
             id="path268"
             style="fill:#bf1e36;fill-opacity:1;fill-rule:nonzero;stroke:none"
             d="m 2433.6,1465.39 h -621.52 l -11.29,161.07 h 644.1 l -11.29,-161.07" /><path
             id="path270"
             style="fill:#1c374d;fill-opacity:1;fill-rule:nonzero;stroke:none"
             d="m 1952.32,367.129 c -39.95,0 -72.34,32.383 -72.34,72.32 V 893.91 c 0,39.942 32.39,72.328 72.34,72.328 39.94,0 72.33,-32.386 72.33,-72.328 V 439.449 c 0,-39.937 -32.39,-72.32 -72.33,-72.32" /><path
             id="path272"
             style="fill:#101325;fill-opacity:1;fill-rule:nonzero;stroke:none"
             d="M 2508.55,1472.95 H 1737.6 V 787.77 c 0,-59.02 47.84,-106.86 106.86,-106.86 h 557.22 c 59.02,0 106.87,47.84 106.87,106.86 v 685.18" /><path
             id="path274"
             style="fill:#3e2114;fill-opacity:1;fill-rule:nonzero;stroke:none"
             d="m 1737.6,797.641 h 770.95 v 685.189 c 0,59.01 -47.85,106.86 -106.87,106.86 h -557.22 c -59.02,0 -106.86,-47.85 -106.86,-106.86 V 797.641" /><path
             id="path276"
             style="fill:#2f1a13;fill-opacity:1;fill-rule:nonzero;stroke:none"
             d="m 1737.6,795.359 h 770.938 v 72.7695 H 1737.6 Z" /><path
             id="path278"
             style="fill:#2f1a13;fill-opacity:1;fill-rule:nonzero;stroke:none"
             d="m 1737.6,941.281 h 770.938 v 72.7695 H 1737.6 Z" /><path
             id="path280"
             style="fill:#2f1a13;fill-opacity:1;fill-rule:nonzero;stroke:none"
             d="m 1737.6,1087.2 h 770.938 v 72.7813 H 1737.6 Z" /><path
             id="path282"
             style="fill:#2f1a13;fill-opacity:1;fill-rule:nonzero;stroke:none"
             d="m 1737.6,1233.11 h 770.938 v 72.7813 H 1737.6 Z" /><path
             id="path284"
             style="fill:#2f1a13;fill-opacity:1;fill-rule:nonzero;stroke:none"
             d="m 1737.6,1379.04 h 770.938 v 72.7695 H 1737.6 Z" /><path
             id="path286"
             style="fill:#101325;fill-opacity:1;fill-rule:nonzero;stroke:none"
             d="m 2365.51,555.449 h -107.25 c -43.48,0 -78.85,35.403 -78.85,78.922 v 70.25 c 0,10.457 8.48,18.93 18.93,18.93 10.46,0 18.95,-8.473 18.95,-18.93 v -70.25 c 0,-22.633 18.38,-41.043 40.97,-41.043 h 107.25 c 10.46,0 18.94,-8.488 18.94,-18.949 0,-10.449 -8.48,-18.93 -18.94,-18.93" /><path
             id="path288"
             style="fill:#101325;fill-opacity:1;fill-rule:nonzero;stroke:none"
             d="m 2015.49,649.191 h 210.21 c 33.81,0 61.21,27.438 61.21,61.297 0,33.84 -27.4,61.282 -61.21,61.282 h -210.21 c -33.81,0 -61.21,-27.442 -61.21,-61.282 0,-33.859 27.4,-61.297 61.21,-61.297" /><path
             id="path290"
             style="fill:#101325;fill-opacity:1;fill-rule:nonzero;stroke:none"
             d="m 2123.07,346.801 c -16.45,0 -29.8,13.34 -29.8,29.801 v 347.027 c 0,16.461 13.35,29.801 29.8,29.801 16.46,0 29.8,-13.34 29.8,-29.801 V 376.602 c 0,-16.461 -13.34,-29.801 -29.8,-29.801" /><path
             id="path292"
             style="fill:#101325;fill-opacity:1;fill-rule:nonzero;stroke:none"
             d="m 2365.52,574.391 h -40.5 c 0,22.25 18.28,40.55 40.5,40.55 22.22,0 40.5,-18.3 40.5,-40.55 0,-22.243 -18.28,-40.551 -40.5,-40.551 -14.89,0 -28.61,8.219 -35.67,21.34 l 35.67,19.211" /><path
             id="path294"
             style="fill:#101325;fill-opacity:1;fill-rule:nonzero;stroke:none"
             d="m 2151.28,2563.56 h -56.88 c -126.21,0 -226.21,-106.54 -218.22,-232.49 l 6.31,-99.69 27.46,-66.91 c 26.84,-65.43 90.56,-108.16 161.28,-108.16 h 103.22 c 70.72,0 134.44,42.73 161.29,108.16 l 27.45,66.91 6.32,99.69 c 7.97,125.95 -92.03,232.49 -218.23,232.49" /><path
             id="path296"
             style="fill:#101325;fill-opacity:1;fill-rule:nonzero;stroke:none"
             d="m 2020.7,2639.66 c -12.49,-24.93 -8.65,-55.95 12.12,-76.72 20.81,-20.81 51.81,-24.64 76.73,-12.13 l -88.85,88.85" /><path
             id="path298"
             style="fill:#101325;fill-opacity:1;fill-rule:nonzero;stroke:none"
             d="m 2142.12,2623.67 c -26.47,-8.79 -45.68,-33.45 -45.68,-62.82 0,-29.42 19.21,-54.05 45.68,-62.83 v 125.65" /></g></g><g
         id="g300"><g
           clip-path="url(#clipPath306)"
           id="g302"><path
             id="path308"
             style="fill:#29577c;fill-opacity:1;fill-rule:nonzero;stroke:none"
             d="m 2418.52,3215.26 c 0,230.19 186.61,416.8 416.81,416.8 230.18,0 416.79,-186.61 416.79,-416.8 0,-230.2 -186.61,-416.81 -416.79,-416.81 -230.2,0 -416.81,186.61 -416.81,416.81" /></g></g><g
         id="g310"><g
           clip-path="url(#clipPath316)"
           id="g312"><path
             id="path318"
             style="fill:#0f1f2d;fill-opacity:1;fill-rule:nonzero;stroke:none"
             d="m 2450.37,2242.43 116.79,-12.11 c 3.6,34.51 6.44,68.81 9.49,105.09 13.77,165.07 29.4,352.15 121.72,620.77 l -111.05,38.17 c -97.05,-282.44 -113.35,-477.26 -127.71,-649.16 -2.98,-35.72 -5.79,-69.42 -9.24,-102.76" /><path
             id="path320"
             style="fill:#0f1f2d;fill-opacity:1;fill-rule:nonzero;stroke:none"
             d="m 2603.22,2220.88 v 390.59 l -13.25,384.85 c 79.59,20.24 162.91,30.96 248.81,30.96 85.89,0 137.18,-5.19 293.74,-43.36 l -44.96,-125.25 -13.24,-260.44 v -377.35 h -471.1" /><path
             id="path322"
             style="fill:#e8e0d8;fill-opacity:1;fill-rule:nonzero;stroke:none"
             d="m 2866.78,2791.47 -49.52,1.03 -91.67,229.19 c 36.8,4.89 74.28,7.5 112.43,7.5 40.92,0 81.07,-3 120.4,-8.64 l -91.64,-229.08" /><path
             id="path324"
             style="fill:#cdc7ac;fill-opacity:1;fill-rule:nonzero;stroke:none"
             d="m 2906.33,2890.94 -39.6,-98.88 h -49.56 l -39.48,98.8 64.39,49.3 64.25,-49.22" /><path
             id="path326"
             style="fill:#e02c39;fill-opacity:1;fill-rule:nonzero;stroke:none"
             d="m 2850.46,2876.51 16.27,-84.45 -24.8,-61.97 -24.76,61.97 16.3,84.58 -24.35,38.33 32.91,25.19 32.82,-25.14 -24.39,-38.51" /><path
             id="path328"
             style="fill:#101325;fill-opacity:1;fill-rule:nonzero;stroke:none"
             d="m 2615.17,2786.76 c -2.97,-10.3 2.95,-21.06 13.27,-24.02 l 58.17,-14.91 c 10.24,-2.97 20.98,2.95 24,13.27 2.98,10.31 -3.02,21.08 -13.32,24.06 l -58.12,14.89 c -10.29,3 -21.05,-3 -24,-13.29" /><path
             id="path330"
             style="fill:#0f1f2d;fill-opacity:1;fill-rule:nonzero;stroke:none"
             d="m 3269.86,2261 h -117.42 c 0,251.3 -45.1,491.07 -127.01,675.15 l 107.3,47.72 c 88.43,-198.76 137.13,-455.48 137.13,-722.87" /><path
             id="path332"
             style="fill:#f78e75;fill-opacity:1;fill-rule:nonzero;stroke:none"
             d="m 2780.64,3028.8 c 0,-31.58 25.61,-57.22 57.24,-57.22 31.56,0 57.19,25.64 57.19,57.22 v 191.52 c 0,31.59 -25.63,57.2 -57.19,57.2 -31.63,0 -57.24,-25.61 -57.24,-57.2 V 3028.8" /><path
             id="path334"
             style="fill:#f78e75;fill-opacity:1;fill-rule:nonzero;stroke:none"
             d="m 2654.79,3342.41 c 0,89.14 62.42,161.39 151.56,161.39 89.12,0 161.37,-72.25 161.37,-161.39 v -88.57 c 0,-89.14 -72.25,-161.38 -161.37,-161.38 -1.22,0 -2.4,0.05 -3.57,0.08 v -0.08 h -66.93 c -44.28,0 -81.06,35.93 -81.06,80.28 v 169.67" /><path
             id="path336"
             style="fill:#f78e75;fill-opacity:1;fill-rule:nonzero;stroke:none"
             d="m 2921.32,3309.45 h 57.44 c 24.89,0 45.08,-20.19 45.08,-45.03 0,-24.9 -20.19,-45.05 -45.08,-45.05 h -73.25 l 15.81,90.08" /><path
             id="path338"
             style="fill:#f4e0e0;fill-opacity:1;fill-rule:nonzero;stroke:none"
             d="m 2703.64,3199.25 c 0,-27.08 21.95,-49.03 49.03,-49.03 27.08,0 49.01,21.95 49.01,49.03 h -98.04" /><path
             id="path340"
             style="fill:#727c7e;fill-opacity:1;fill-rule:nonzero;stroke:none"
             d="m 2803.43,3127.82 3.4,-0.07 c 3.17,0 6.33,0.12 9.44,0.35 l -18.31,44.02 c -6.13,14.74 -20.4,24.26 -36.35,24.26 h -55.38 c -8.9,0 -16.14,-7.23 -16.14,-16.13 v -7.51 c 0,-24.8 20.53,-44.99 45.76,-44.99 h 65.36 z m -1.09,-60.29 -0.43,0.01 h -66.06 c -44.69,0 -81.06,36.02 -81.06,80.29 v 32.42 c 0,28.36 23.07,51.43 51.44,51.43 h 55.38 c 30.26,0 57.33,-18.04 68.95,-46 l 20.69,-49.75 c 47.31,18.08 81.17,64.12 81.17,117.91 v 88.57 h 35.3 v -113.49 c 0,-88.99 -72.38,-161.38 -161.36,-161.38 l -3.17,0.07 -0.85,-0.08" /><path
             id="path342"
             style="fill:#727c7e;fill-opacity:1;fill-rule:nonzero;stroke:none"
             d="m 2694.56,3405.37 17.12,-0.01 c 46.87,3.28 91.18,23.16 124.61,56.59 17.27,17.26 45.37,20 64.08,4.31 16.13,-13.52 20.57,-35.13 13.29,-53.1 -33.22,-80.44 -26.76,-64.02 -32.85,-81.89 v -0.52 c 28.5,-0.08 51.57,-23.2 51.57,-51.71 v -31.45 l 62.19,60.43 v 125.55 c 0,57.46 -46.57,104.04 -104.03,104.04 h -82.89 c -70.3,0 -123.99,-62.78 -113.09,-132.24" /></g></g><g
         id="g344"><g
           clip-path="url(#clipPath350)"
           id="g346"><path
             id="path352"
             style="fill:#181b38;fill-opacity:1;fill-rule:nonzero;stroke:none"
             d="m 3204.31,2629.52 h -476.45 c -24.83,0 -44.96,-19.7 -44.96,-44.01 v -58.64 h 566.37 v 58.64 c 0,24.31 -20.13,44.01 -44.96,44.01" /><path
             id="path354"
             style="fill:#181b38;fill-opacity:1;fill-rule:nonzero;stroke:none"
             d="m 2682.9,2526.87 v -315.35 c 0,-24.31 20.13,-44.02 44.96,-44.02 h 476.45 c 24.83,0 44.96,19.71 44.96,44.02 v 315.35 H 2682.9" /><path
             id="path356"
             style="fill:#dc3949;fill-opacity:1;fill-rule:nonzero;stroke:none"
             d="m 3204.31,2646.4 h -476.45 c -24.83,0 -44.96,-19.7 -44.96,-44.01 v -58.64 h 566.37 v 58.64 c 0,24.31 -20.13,44.01 -44.96,44.01" /><path
             id="path358"
             style="fill:#f2f2ed;fill-opacity:1;fill-rule:nonzero;stroke:none"
             d="M 2682.9,2543.75 V 2228.4 c 0,-24.31 20.13,-44.02 44.96,-44.02 h 476.45 c 24.83,0 44.96,19.71 44.96,44.02 v 315.35 H 2682.9" /><path
             id="path360"
             style="fill:#cdc7ac;fill-opacity:1;fill-rule:nonzero;stroke:none"
             d="m 2857.26,2447.53 c -18.1,0 -32.76,14.36 -32.76,32.08 0,17.71 14.66,32.07 32.76,32.07 18.1,0 32.76,-14.36 32.76,-32.07 0,-17.72 -14.66,-32.08 -32.76,-32.08" /><path
             id="path362"
             style="fill:#cdc7ac;fill-opacity:1;fill-rule:nonzero;stroke:none"
             d="m 2966.09,2447.53 c -18.1,0 -32.77,14.36 -32.77,32.08 0,17.71 14.67,32.07 32.77,32.07 18.09,0 32.76,-14.36 32.76,-32.07 0,-17.72 -14.67,-32.08 -32.76,-32.08" /><path
             id="path364"
             style="fill:#cdc7ac;fill-opacity:1;fill-rule:nonzero;stroke:none"
             d="m 3074.92,2447.53 c -18.1,0 -32.77,14.36 -32.77,32.08 0,17.71 14.67,32.07 32.77,32.07 18.09,0 32.76,-14.36 32.76,-32.07 0,-17.72 -14.67,-32.08 -32.76,-32.08" /><path
             id="path366"
             style="fill:#cdc7ac;fill-opacity:1;fill-rule:nonzero;stroke:none"
             d="m 3183.74,2447.53 c -18.09,0 -32.76,14.36 -32.76,32.08 0,17.71 14.67,32.07 32.76,32.07 18.1,0 32.77,-14.36 32.77,-32.07 0,-17.72 -14.67,-32.08 -32.77,-32.08" /><path
             id="path368"
             style="fill:#cdc7ac;fill-opacity:1;fill-rule:nonzero;stroke:none"
             d="m 2748.43,2343.81 c -18.09,0 -32.76,14.36 -32.76,32.08 0,17.71 14.67,32.07 32.76,32.07 18.1,0 32.76,-14.36 32.76,-32.07 0,-17.72 -14.66,-32.08 -32.76,-32.08" /><path
             id="path370"
             style="fill:#cdc7ac;fill-opacity:1;fill-rule:nonzero;stroke:none"
             d="m 2857.26,2343.81 c -18.1,0 -32.76,14.36 -32.76,32.08 0,17.71 14.66,32.07 32.76,32.07 18.09,0 32.76,-14.36 32.76,-32.07 0,-17.72 -14.67,-32.08 -32.76,-32.08" /><path
             id="path372"
             style="fill:#cdc7ac;fill-opacity:1;fill-rule:nonzero;stroke:none"
             d="m 2966.09,2343.81 c -18.1,0 -32.77,14.36 -32.77,32.08 0,17.71 14.67,32.07 32.77,32.07 18.09,0 32.76,-14.36 32.76,-32.07 0,-17.72 -14.67,-32.08 -32.76,-32.08" /><path
             id="path374"
             style="fill:#cdc7ac;fill-opacity:1;fill-rule:nonzero;stroke:none"
             d="m 3074.92,2343.81 c -18.1,0 -32.77,14.36 -32.77,32.08 0,17.71 14.67,32.07 32.77,32.07 18.09,0 32.76,-14.36 32.76,-32.07 0,-17.72 -14.67,-32.08 -32.76,-32.08" /><path
             id="path376"
             style="fill:#cdc7ac;fill-opacity:1;fill-rule:nonzero;stroke:none"
             d="m 3183.74,2343.81 c -18.09,0 -32.76,14.36 -32.76,32.08 0,17.71 14.67,32.07 32.76,32.07 18.1,0 32.77,-14.36 32.77,-32.07 0,-17.72 -14.67,-32.08 -32.77,-32.08" /><path
             id="path378"
             style="fill:#cdc7ac;fill-opacity:1;fill-rule:nonzero;stroke:none"
             d="m 2748.43,2240.09 c -18.09,0 -32.76,14.36 -32.76,32.08 0,17.71 14.67,32.07 32.76,32.07 18.1,0 32.77,-14.36 32.77,-32.07 0,-17.72 -14.67,-32.08 -32.77,-32.08" /><path
             id="path380"
             style="fill:#cdc7ac;fill-opacity:1;fill-rule:nonzero;stroke:none"
             d="m 2857.26,2240.09 c -18.1,0 -32.76,14.36 -32.76,32.08 0,17.71 14.66,32.07 32.76,32.07 18.1,0 32.76,-14.36 32.76,-32.07 0,-17.72 -14.66,-32.08 -32.76,-32.08" /><path
             id="path382"
             style="fill:#cdc7ac;fill-opacity:1;fill-rule:nonzero;stroke:none"
             d="m 2966.09,2240.09 c -18.1,0 -32.77,14.36 -32.77,32.08 0,17.71 14.67,32.07 32.77,32.07 18.09,0 32.76,-14.36 32.76,-32.07 0,-17.72 -14.67,-32.08 -32.76,-32.08" /><path
             id="path384"
             style="fill:#cdc7ac;fill-opacity:1;fill-rule:nonzero;stroke:none"
             d="m 3074.92,2240.09 c -18.1,0 -32.77,14.36 -32.77,32.08 0,17.71 14.67,32.07 32.77,32.07 18.09,0 32.76,-14.36 32.76,-32.07 0,-17.72 -14.67,-32.08 -32.76,-32.08" /><path
             id="path386"
             style="fill:#85b227;fill-opacity:1;fill-rule:nonzero;stroke:none"
             d="m 3216.51,2447.53 h -141.59 c -18.1,0 -32.77,14.36 -32.77,32.08 v 0 c 0,-17.72 14.67,-32.08 32.77,-32.08 18.09,0 32.76,14.36 32.76,32.08 0,17.71 -14.67,32.07 -32.76,32.07 h 108.82 c -18.09,0 -32.76,-14.36 -32.76,-32.07 0,-17.72 14.67,-32.08 32.76,-32.08 18.1,0 32.77,14.36 32.77,32.08 0,17.71 -14.67,32.07 -32.77,32.07 h 32.77 v -64.15" /><path
             id="path388"
             style="fill:#749427;fill-opacity:1;fill-rule:nonzero;stroke:none"
             d="m 3074.92,2447.53 c -18.1,0 -32.77,14.36 -32.77,32.08 0,17.71 14.67,32.07 32.77,32.07 v 0 c 18.09,0 32.76,-14.36 32.76,-32.07 0,-17.72 -14.67,-32.08 -32.76,-32.08" /><path
             id="path390"
             style="fill:#749427;fill-opacity:1;fill-rule:nonzero;stroke:none"
             d="m 3183.74,2447.53 c -18.09,0 -32.76,14.36 -32.76,32.08 0,17.71 14.67,32.07 32.76,32.07 v 0 c 18.1,0 32.77,-14.36 32.77,-32.07 0,-17.72 -14.67,-32.08 -32.77,-32.08" /><path
             id="path392"
             style="fill:#85b227;fill-opacity:1;fill-rule:nonzero;stroke:none"
             d="m 2966.09,2343.81 h -250.42 v 32.08 c 0,-17.72 14.67,-32.08 32.76,-32.08 18.1,0 32.76,14.36 32.76,32.08 0,17.71 -14.66,32.07 -32.76,32.07 h 108.83 c -18.1,0 -32.76,-14.36 -32.76,-32.07 0,-17.72 14.66,-32.08 32.76,-32.08 18.09,0 32.76,14.36 32.76,32.08 0,17.71 -14.67,32.07 -32.76,32.07 h 108.83 c -18.1,0 -32.77,-14.36 -32.77,-32.07 0,-17.72 14.67,-32.08 32.77,-32.08 18.09,0 32.76,14.36 32.76,32.08 v 0 c 0,-17.72 -14.67,-32.08 -32.76,-32.08 m -250.42,32.08 v 32.07 h 32.76 c -18.09,0 -32.76,-14.36 -32.76,-32.07" /><path
             id="path394"
             style="fill:#749427;fill-opacity:1;fill-rule:nonzero;stroke:none"
             d="m 2748.43,2343.81 c -18.09,0 -32.76,14.36 -32.76,32.08 v 0 c 0,17.71 14.67,32.07 32.76,32.07 v 0 c 18.1,0 32.76,-14.36 32.76,-32.07 0,-17.72 -14.66,-32.08 -32.76,-32.08" /><path
             id="path396"
             style="fill:#749427;fill-opacity:1;fill-rule:nonzero;stroke:none"
             d="m 2857.26,2343.81 c -18.1,0 -32.76,14.36 -32.76,32.08 0,17.71 14.66,32.07 32.76,32.07 v 0 c 18.09,0 32.76,-14.36 32.76,-32.07 0,-17.72 -14.67,-32.08 -32.76,-32.08" /><path
             id="path398"
             style="fill:#749427;fill-opacity:1;fill-rule:nonzero;stroke:none"
             d="m 2966.09,2343.81 c -18.1,0 -32.77,14.36 -32.77,32.08 0,17.71 14.67,32.07 32.77,32.07 v 0 c 18.09,0 32.76,-14.36 32.76,-32.07 0,-17.72 -14.67,-32.08 -32.76,-32.08" /><path
             id="path400"
             style="fill:#181b38;fill-opacity:1;fill-rule:nonzero;stroke:none"
             d="m 2770.24,2608.58 c 0,11.79 -9.77,21.35 -21.81,21.35 -12.04,0 -21.81,-9.56 -21.81,-21.35 0,-11.79 9.77,-21.34 21.81,-21.34 12.04,0 21.81,9.55 21.81,21.34" /><path
             id="path402"
             style="fill:#181b38;fill-opacity:1;fill-rule:nonzero;stroke:none"
             d="m 2915.35,2608.58 c 0,11.79 -9.77,21.35 -21.81,21.35 -12.04,0 -21.81,-9.56 -21.81,-21.35 0,-11.79 9.77,-21.34 21.81,-21.34 12.04,0 21.81,9.55 21.81,21.34" /><path
             id="path404"
             style="fill:#181b38;fill-opacity:1;fill-rule:nonzero;stroke:none"
             d="m 3060.44,2608.58 c 0,11.79 -9.76,21.35 -21.8,21.35 -12.04,0 -21.81,-9.56 -21.81,-21.35 0,-11.79 9.77,-21.34 21.81,-21.34 12.04,0 21.8,9.55 21.8,21.34" /><path
             id="path406"
             style="fill:#181b38;fill-opacity:1;fill-rule:nonzero;stroke:none"
             d="m 3205.55,2608.58 c 0,11.79 -9.77,21.35 -21.81,21.35 -12.04,0 -21.8,-9.56 -21.8,-21.35 0,-11.79 9.76,-21.34 21.8,-21.34 12.04,0 21.81,9.55 21.81,21.34" /><path
             id="path408"
             style="fill:#a6aba9;fill-opacity:1;fill-rule:nonzero;stroke:none"
             d="m 2756.42,2608.58 v 80.15 c 0,4.41 -3.58,7.99 -7.99,7.99 -4.41,0 -7.99,-3.58 -7.99,-7.99 v -80.15 c 0,-4.41 3.58,-7.99 7.99,-7.99 4.41,0 7.99,3.58 7.99,7.99" /><path
             id="path410"
             style="fill:#a6aba9;fill-opacity:1;fill-rule:nonzero;stroke:none"
             d="m 2901.53,2608.58 v 80.15 c 0,4.41 -3.58,7.99 -7.99,7.99 -4.41,0 -7.99,-3.58 -7.99,-7.99 v -80.15 c 0,-4.41 3.58,-7.99 7.99,-7.99 4.41,0 7.99,3.58 7.99,7.99" /><path
             id="path412"
             style="fill:#a6aba9;fill-opacity:1;fill-rule:nonzero;stroke:none"
             d="m 3046.63,2608.58 v 80.15 c 0,4.41 -3.58,7.99 -7.99,7.99 -4.42,0 -7.99,-3.58 -7.99,-7.99 v -80.15 c 0,-4.41 3.57,-7.99 7.99,-7.99 4.41,0 7.99,3.58 7.99,7.99" /><path
             id="path414"
             style="fill:#a6aba9;fill-opacity:1;fill-rule:nonzero;stroke:none"
             d="m 3191.73,2608.58 v 80.15 c 0,4.41 -3.57,7.99 -7.99,7.99 -4.41,0 -7.98,-3.58 -7.98,-7.99 v -80.15 c 0,-4.41 3.57,-7.99 7.98,-7.99 4.42,0 7.99,3.58 7.99,7.99" /><path
             id="path416"
             style="fill:#f2f2ed;fill-opacity:1;fill-rule:nonzero;stroke:none"
             d="m 3056.83,2479.61 h 3.33 c 0.01,7.88 6.55,14.37 14.76,14.37 8.2,0 14.74,-6.49 14.75,-14.37 -0.01,-7.89 -6.55,-14.38 -14.75,-14.38 -8.21,0 -14.75,6.49 -14.76,14.38 h -6.66 c 0.01,-11.68 9.64,-21.02 21.42,-21.04 11.77,0.02 21.4,9.36 21.41,21.04 -0.01,11.67 -9.64,21.01 -21.41,21.03 -11.78,-0.02 -21.41,-9.36 -21.42,-21.03 h 3.33" /><path
             id="path418"
             style="fill:#f2f2ed;fill-opacity:1;fill-rule:nonzero;stroke:none"
             d="m 3180.42,2665.09 v -28.82 c 0,-1.84 1.49,-3.33 3.32,-3.33 1.84,0 3.33,1.49 3.33,3.33 v 28.82 c 0,1.84 -1.49,3.33 -3.33,3.33 -1.83,0 -3.32,-1.49 -3.32,-3.33" /><path
             id="path420"
             style="fill:#f2f2ed;fill-opacity:1;fill-rule:nonzero;stroke:none"
             d="m 3035.31,2665.09 v -28.82 c 0,-1.84 1.49,-3.33 3.33,-3.33 1.83,0 3.33,1.49 3.33,3.33 v 28.82 c 0,1.84 -1.5,3.33 -3.33,3.33 -1.84,0 -3.33,-1.49 -3.33,-3.33" /><path
             id="path422"
             style="fill:#f2f2ed;fill-opacity:1;fill-rule:nonzero;stroke:none"
             d="m 2890.21,2665.09 v -28.82 c 0,-1.84 1.49,-3.33 3.33,-3.33 1.84,0 3.33,1.49 3.33,3.33 v 28.82 c 0,1.84 -1.49,3.33 -3.33,3.33 -1.84,0 -3.33,-1.49 -3.33,-3.33" /><path
             id="path424"
             style="fill:#f2f2ed;fill-opacity:1;fill-rule:nonzero;stroke:none"
             d="m 2745.1,2665.09 v -28.82 c 0,-1.84 1.49,-3.33 3.33,-3.33 1.84,0 3.33,1.49 3.33,3.33 v 28.82 c 0,1.84 -1.49,3.33 -3.33,3.33 -1.84,0 -3.33,-1.49 -3.33,-3.33" /><path
             id="path426"
             style="fill:#f2f2ed;fill-opacity:1;fill-rule:nonzero;stroke:none"
             d="m 2976.55,2390.78 -25.58,-25.03 c -1.32,-1.29 -1.34,-3.4 -0.05,-4.71 1.28,-1.32 3.39,-1.34 4.7,-0.05 l 25.59,25.04 c 1.31,1.28 1.34,3.39 0.05,4.7 -1.29,1.32 -3.39,1.34 -4.71,0.05" /><path
             id="path428"
             style="fill:#f2f2ed;fill-opacity:1;fill-rule:nonzero;stroke:none"
             d="m 2981.21,2365.75 -25.59,25.03 c -1.31,1.29 -3.42,1.27 -4.7,-0.05 -1.29,-1.31 -1.27,-3.42 0.05,-4.7 l 25.58,-25.04 c 1.32,-1.29 3.42,-1.27 4.71,0.05 1.29,1.31 1.26,3.42 -0.05,4.71" /><path
             id="path430"
             style="fill:#dc3949;fill-opacity:1;fill-rule:nonzero;stroke:none"
             d="m 1429.55,2977.41 h -324.94 c -64.59,0 -116.954,52.36 -116.954,116.96 v 160.03 c 0,64.6 52.364,116.96 116.954,116.96 h 324.94 c 64.59,0 116.95,-52.36 116.95,-116.96 v -160.03 c 0,-64.6 -52.36,-116.96 -116.95,-116.96" /><path
             id="path432"
             style="fill:#f4f0de;fill-opacity:1;fill-rule:nonzero;stroke:none"
             d="m 1351.21,3140.45 -4.65,9.56 -135.24,-65.8 c -3.97,-1.92 -7.95,-2.77 -11.85,-2.77 -7.04,-0.01 -13.9,2.86 -18.92,7.72 -5.02,4.88 -8.18,11.46 -8.2,19.44 v 131.58 c 0.02,7.97 3.18,14.55 8.19,19.43 5.02,4.85 11.88,7.73 18.93,7.72 3.9,-0.01 7.87,-0.85 11.85,-2.78 l 135.24,-65.79 c 5.23,-2.55 8.91,-6.14 11.44,-10.36 2.52,-4.21 3.81,-9.1 3.81,-14.02 0,-4.91 -1.29,-9.8 -3.81,-14.01 -2.53,-4.22 -6.21,-7.81 -11.44,-10.37 l 4.65,-9.55 4.65,-9.56 c 8.93,4.33 15.86,10.94 20.4,18.59 4.56,7.65 6.81,16.29 6.81,24.9 0,8.62 -2.25,17.25 -6.81,24.91 -4.54,7.65 -11.47,14.26 -20.4,18.59 l -135.24,65.79 c -6.86,3.34 -14.11,4.92 -21.15,4.92 -12.78,-0.01 -24.79,-5.1 -33.69,-13.68 -8.9,-8.55 -14.71,-20.86 -14.69,-34.73 V 3108.6 c -0.02,-13.88 5.79,-26.19 14.69,-34.74 8.9,-8.58 20.92,-13.67 33.69,-13.68 7.04,-0.01 14.29,1.57 21.15,4.92 l 135.24,65.79 -4.65,9.56" /><path
             id="path434"
             style="fill:#101325;fill-opacity:1;fill-rule:nonzero;stroke:none"
             d="m 1616.32,3591.64 105.82,-425.91 391.36,-7.15 c 15.21,-17.63 39.09,-25.53 62.08,-19.81 23,5.71 40.4,23.86 45.6,46.56 l 342.52,189.48 -105.83,425.91 -392.76,-217.29 -448.79,8.21" /><path
             id="path436"
             style="fill:#f0413e;fill-opacity:1;fill-rule:nonzero;stroke:none"
             d="m 2435.4,3891.19 -392.77,-217.29 -448.78,8.21 124.12,-499.62 404,-7.38 c 10.24,-16.26 29.92,-25.04 49.6,-20.16 19.66,4.89 32.96,21.86 34.39,41.03 l 353.57,195.59 -124.13,499.62" /><path
             id="path438"
             style="fill:#e7e6ec;fill-opacity:1;fill-rule:nonzero;stroke:none"
             d="m 2157.36,3212.13 -414.27,7.58 -130.01,523.27 345.22,-6.31 c 38.14,-0.7 76.25,-30.25 85.13,-66 l 113.93,-458.54" /><path
             id="path440"
             style="fill:#c6cac9;fill-opacity:1;fill-rule:nonzero;stroke:none"
             d="m 2157.36,3212.13 -414.27,7.58 -16.08,64.73 345.22,-6.31 c 38.13,-0.7 76.24,-30.25 85.13,-66" /><path
             id="path442"
             style="fill:#e7e6ec;fill-opacity:1;fill-rule:nonzero;stroke:none"
             d="m 2157.36,3212.13 362.55,200.57 -130,523.28 -302.13,-167.14 c -33.38,-18.47 -53.23,-62.42 -44.35,-98.17 l 113.93,-458.54" /><path
             id="path444"
             style="fill:#c6cac9;fill-opacity:1;fill-rule:nonzero;stroke:none"
             d="m 2157.36,3212.13 362.55,200.57 -16.09,64.74 -302.13,-167.15 c -33.37,-18.46 -53.22,-62.41 -44.33,-98.16" /><path
             id="path446"
             style="fill:#c6cac9;fill-opacity:1;fill-rule:nonzero;stroke:none"
             d="m 2140.81,3212.43 16.55,-0.3 -113.92,458.54 c -3.96,15.92 -13.91,30.43 -26.88,41.9 l 124.25,-500.14" /><path
             id="path448"
             style="fill:#c6cac9;fill-opacity:1;fill-rule:nonzero;stroke:none"
             d="m 1760.35,3219.39 -17.26,0.31 -130.01,523.28 17.27,-0.31 130,-523.28" /><path
             id="path450"
             style="fill:#c6cac9;fill-opacity:1;fill-rule:nonzero;stroke:none"
             d="m 1722.28,3669.97 228.71,-4.19 0.18,9.72 -228.71,4.19" /><path
             id="path452"
             style="fill:#c6cac9;fill-opacity:1;fill-rule:nonzero;stroke:none"
             d="m 1732.86,3627.38 228.72,-4.18 0.17,9.72 -228.71,4.18" /><path
             id="path454"
             style="fill:#c6cac9;fill-opacity:1;fill-rule:nonzero;stroke:none"
             d="m 1743.45,3584.8 228.71,-4.18 0.17,9.72 -228.71,4.18" /><path
             id="path456"
             style="fill:#c6cac9;fill-opacity:1;fill-rule:nonzero;stroke:none"
             d="m 1754.02,3542.22 228.71,-4.18 0.18,9.72 -228.71,4.18" /><path
             id="path458"
             style="fill:#c6cac9;fill-opacity:1;fill-rule:nonzero;stroke:none"
             d="m 1764.6,3499.64 228.71,-4.18 0.18,9.72 -228.71,4.18" /><path
             id="path460"
             style="fill:#c6cac9;fill-opacity:1;fill-rule:nonzero;stroke:none"
             d="m 1775.18,3457.06 228.71,-4.18 0.18,9.72 -228.71,4.17" /><path
             id="path462"
             style="fill:#c6cac9;fill-opacity:1;fill-rule:nonzero;stroke:none"
             d="m 1785.76,3414.48 228.71,-4.18 0.18,9.72 -228.71,4.18" /><path
             id="path464"
             style="fill:#c6cac9;fill-opacity:1;fill-rule:nonzero;stroke:none"
             d="m 1796.34,3371.9 228.71,-4.19 0.18,9.72 -228.71,4.19" /><path
             id="path466"
             style="fill:#c6cac9;fill-opacity:1;fill-rule:nonzero;stroke:none"
             d="m 1806.92,3329.32 228.71,-4.19 0.18,9.72 -228.72,4.19" /><path
             id="path468"
             style="fill:#c6cac9;fill-opacity:1;fill-rule:nonzero;stroke:none"
             d="m 2127.41,3709.61 200.16,110.73 -4.7,8.51 -200.17,-110.73" /><path
             id="path470"
             style="fill:#c6cac9;fill-opacity:1;fill-rule:nonzero;stroke:none"
             d="m 2137.99,3667.03 200.16,110.74 -4.71,8.5 -200.15,-110.73" /><path
             id="path472"
             style="fill:#c6cac9;fill-opacity:1;fill-rule:nonzero;stroke:none"
             d="m 2148.57,3624.45 200.16,110.73 -4.7,8.51 -200.17,-110.73" /><path
             id="path474"
             style="fill:#c6cac9;fill-opacity:1;fill-rule:nonzero;stroke:none"
             d="m 2159.15,3581.87 200.16,110.73 -4.71,8.51 -200.15,-110.74" /><path
             id="path476"
             style="fill:#c6cac9;fill-opacity:1;fill-rule:nonzero;stroke:none"
             d="m 2169.73,3539.29 200.16,110.73 -4.71,8.51 -200.16,-110.74" /><path
             id="path478"
             style="fill:#c6cac9;fill-opacity:1;fill-rule:nonzero;stroke:none"
             d="m 2180.31,3496.71 200.16,110.73 -4.7,8.51 -200.17,-110.74" /><path
             id="path480"
             style="fill:#c6cac9;fill-opacity:1;fill-rule:nonzero;stroke:none"
             d="m 2190.88,3454.13 200.17,110.73 -4.71,8.51 -200.16,-110.74" /><path
             id="path482"
             style="fill:#c6cac9;fill-opacity:1;fill-rule:nonzero;stroke:none"
             d="m 2201.47,3411.55 200.15,110.73 -4.7,8.5 -200.16,-110.73" /><path
             id="path484"
             style="fill:#c6cac9;fill-opacity:1;fill-rule:nonzero;stroke:none"
             d="m 2212.04,3368.96 200.16,110.74 -4.71,8.5 -200.15,-110.73" /><path
             id="path486"
             style="fill:#101325;fill-opacity:1;fill-rule:nonzero;stroke:none"
             d="m 2196.6,3233.68 c -10.25,16.27 -29.94,25.04 -49.6,20.16 -19.67,-4.89 -32.97,-21.86 -34.4,-41.03 l 44.76,-0.68 39.24,21.55" /><path
             id="path488"
             style="fill:#f4fae7;fill-opacity:1;fill-rule:nonzero;stroke:none"
             d="m 2372.18,1036.49 h 9.1719 v 14.1719 h -9.1719 z" /><path
             id="path490"
             style="fill:#f4fae7;fill-opacity:1;fill-rule:nonzero;stroke:none"
             d="m 2419.34,1036.49 h 9.62 v 14.17 h -9.62 z m 28.85,0 h 9.62 v 14.17 h -9.62 z m 28.86,0 h 9.62 v 14.17 h -9.62 z m 28.85,0 h 9.62 v 14.17 h -9.62 z m 28.85,0 h 9.62 v 14.17 h -9.62 z m 28.86,0 h 9.62 v 14.17 h -9.62 z m 28.85,0 h 9.62 v 14.17 h -9.62 z m 28.86,0 h 9.61 v 14.17 h -9.61 z m 28.85,0 h 9.62 v 14.17 h -9.62 z m 28.85,0 h 9.62 v 14.17 h -9.62 z m 28.86,0 h 9.62 v 14.17 h -9.62 z m 28.85,0 h 5.51 v 14.17 h -5.51" /><path
             id="path492"
             style="fill:#f4fae7;fill-opacity:1;fill-rule:nonzero;stroke:none"
             d="m 2761.23,1036.49 h 9.168 v 14.1719 h -9.168 z" /><path
             id="path494"
             style="fill:#f4fae7;fill-opacity:1;fill-rule:nonzero;stroke:none"
             d="m 2410.38,959.309 h 9.1602 v 14.1719 h -9.1602 z" /><path
             id="path496"
             style="fill:#f4fae7;fill-opacity:1;fill-rule:nonzero;stroke:none"
             d="m 2454.84,959.309 h 8.93 v 14.171 h -8.93 z m 26.8,0 h 8.93 v 14.171 h -8.93 z m 26.8,0 h 8.93 v 14.171 h -8.93 z m 26.8,0 h 8.93 v 14.171 h -8.93 z m 26.8,0 h 8.93 v 14.171 h -8.93 z m 26.8,0 h 7.13 v 14.171 h -7.13" /><path
             id="path498"
             style="fill:#f4fae7;fill-opacity:1;fill-rule:nonzero;stroke:none"
             d="m 2613.62,959.309 h 9.1602 v 14.1719 h -9.1602 z" /><path
             id="path500"
             style="fill:#f4fae7;fill-opacity:1;fill-rule:nonzero;stroke:none"
             d="m 2291.83,3044.21 h 7.09 c -0.01,15.09 -12.23,27.31 -27.31,27.31 -15.09,0 -27.31,-12.22 -27.32,-27.31 0.01,-15.08 12.23,-27.31 27.32,-27.31 15.08,0 27.3,12.23 27.31,27.31 h -14.18 c -0.01,-7.26 -5.88,-13.13 -13.13,-13.14 -7.26,0.01 -13.13,5.88 -13.14,13.14 0.01,7.26 5.88,13.13 13.14,13.14 7.25,-0.01 13.12,-5.88 13.13,-13.14 h 7.09" /><path
             id="path502"
             style="fill:#f4fae7;fill-opacity:1;fill-rule:nonzero;stroke:none"
             d="m 805.105,1823.81 h 7.086 c -0.003,18.81 -15.246,34.05 -34.058,34.06 -18.809,-0.01 -34.051,-15.25 -34.055,-34.06 0.008,-18.81 15.246,-34.05 34.055,-34.05 18.812,0 34.055,15.24 34.058,34.05 H 798.02 c -0.02,-10.98 -8.903,-19.86 -19.887,-19.88 -10.977,0.02 -19.86,8.9 -19.879,19.88 0.019,10.98 8.902,19.86 19.879,19.88 10.984,-0.02 19.867,-8.9 19.887,-19.88 h 7.085" /></g></g></g></g></svg>